inDegrees=no
num_controls=7
num_derivatives=13
num_iterations=180
num_multipliers=7
num_parameters=0
num_slacks=7
num_states=26
objective=5.999134
objective_accelerations=0.775951
objective_balance=0.016250
objective_effort=0.528687
objective_height=4.559236
objective_ligament=0.119011
solver_duration=1546.671457
status=Solve_Succeeded
success=true
DataType=double
version=3
OpenSimVersion=4.4-2022-07-23-0e9fedc
endheader
time	/jointset/ground_pelvis/pelvis_tilt/value	/jointset/ground_pelvis/pelvis_tx/value	/jointset/ground_pelvis/pelvis_ty/value	/jointset/hip_r/hip_flexion_r/value	/jointset/hip_r/hip_adduction_r/value	/jointset/hip_r/hip_rotation_r/value	/jointset/back/lumbar_extension/value	/jointset/patellofemoral_r/patellar_flexion_r/value	/jointset/knee_r/knee_flexion_r/value	/jointset/knee_r/knee_adduction_r/value	/jointset/knee_r/knee_rotation_r/value	/jointset/ankle_r/ankle_angle_r/value	/jointset/subtalar_r/subtalar_angle_r/value	/jointset/ground_pelvis/pelvis_tilt/speed	/jointset/ground_pelvis/pelvis_tx/speed	/jointset/ground_pelvis/pelvis_ty/speed	/jointset/hip_r/hip_flexion_r/speed	/jointset/hip_r/hip_adduction_r/speed	/jointset/hip_r/hip_rotation_r/speed	/jointset/back/lumbar_extension/speed	/jointset/patellofemoral_r/patellar_flexion_r/speed	/jointset/knee_r/knee_flexion_r/speed	/jointset/knee_r/knee_adduction_r/speed	/jointset/knee_r/knee_rotation_r/speed	/jointset/ankle_r/ankle_angle_r/speed	/jointset/subtalar_r/subtalar_angle_r/speed	/forceset/tau_hip_flexion_r	/forceset/tau_hip_adduction_r	/forceset/tau_hip_rotation_r	/forceset/tau_knee_flexion_r	/forceset/tau_ankle_angle_r	/forceset/tau_subtalar_angle_r	/forceset/tau_lumbar_extension	lambda_cid13_p0	lambda_cid14_p0	lambda_cid14_p1	lambda_cid14_p2	lambda_cid14_p3	lambda_cid14_p4	lambda_cid14_p5	/jointset/ground_pelvis/pelvis_tilt/accel	/jointset/ground_pelvis/pelvis_tx/accel	/jointset/ground_pelvis/pelvis_ty/accel	/jointset/hip_r/hip_flexion_r/accel	/jointset/hip_r/hip_adduction_r/accel	/jointset/hip_r/hip_rotation_r/accel	/jointset/back/lumbar_extension/accel	/jointset/patellofemoral_r/patellar_flexion_r/accel	/jointset/knee_r/knee_flexion_r/accel	/jointset/knee_r/knee_adduction_r/accel	/jointset/knee_r/knee_rotation_r/accel	/jointset/ankle_r/ankle_angle_r/accel	/jointset/subtalar_r/subtalar_angle_r/accel	gamma_cid13_p0	gamma_cid14_p0	gamma_cid14_p1	gamma_cid14_p2	gamma_cid14_p3	gamma_cid14_p4	gamma_cid14_p5
1	-0.2871841812367781	-0.02665822113529329	0.5719048102295446	1.636800517613823	-0.2433945420533699	0.08160414077763793	-0.7853961551986353	1.673089037375338	1.673089037375365	-0.04363230998457521	0.1745325647775682	0.4362220515587846	0.1619749826465446	0.06967347814679932	0.004282244439513815	0.01640750149690627	-0.1016768407197392	-0.002107902131530029	-0.007760754014486184	4.717394765855841e-06	-0.01790525018615576	-0.01790525018615466	-0.0005618739045462422	-3.460848007322573e-07	0.0140069466840284	0.0031068382788709	-0.3756375633805266	0.0124453209591925	0.02830407652966955	-0.4970505963993537	-0.009006428290000592	-0.01117092806665008	0.3838912821869956	-0.03868672333591378	-57.25610707559385	-17.93091728946362	6.76930448815265	10.1014173123877	-790.3661573838018	73.13955175541361	1.264415219014014	0.09150797989449667	2.188977680809964	-6.310458148135806	-0.1017306947039324	-1.709551463376967	-0.01334824267899581	-5.64029154565113	-5.640291545651131	0.1867990700802432	0.01433137475403394	-0.8525909943346081	-0.5681257212663702	1.363828510491726e-10	5.041021733710316e-10	-4.249020885977299e-09	6.549261572059251e-09	-2.353312449840879e-09	-4.00174758769293e-09	-1.248688330010089e-08
1.01	-0.2864246947837305	-0.02661079516801741	0.5721781542710442	1.635469000753629	-0.2434203985586924	0.08144165215668306	-0.7853961886236361	1.672628338825987	1.672628338825995	-0.04362849829030491	0.1745325735079933	0.4363196034824323	0.161978260660482	0.08223882736419	0.005209469351412365	0.03825419118665389	-0.1646266738694784	-0.003060672364911757	-0.02472998215005869	-2.235734230749959e-05	-0.07421673352394184	-0.07421673352394564	0.001321672992960355	2.667579686992433e-06	0.005508050010660093	-0.002444005120715748	-0.3749569559635891	0.01239689242140809	0.02832594819501322	-0.4972237518303321	-0.008524305186157479	-0.01115631221127347	0.383497450772038	-0.03869068423340697	-57.07295563846482	-17.89469389630474	6.766034208719041	9.933835081692624	-790.0088497252718	73.19201328575897	1.254846625757375	0.09430622173866658	2.181445829290843	-6.28726771626165	-0.09163892753039114	-1.689561728271143	0.0009696685583845602	-5.623917803013875	-5.623917803014481	0.1887530413031872	-0.00662486260381156	-0.8478473195629653	-0.5474762683868878	-3.476293649246744e-12	1.866138635478674e-09	9.753398632336389e-09	1.081227649674113e-08	-7.8203640223997e-09	-7.174301623337563e-09	1.225695715587839e-09
1.02	-0.2855391044679825	-0.0265539016566414	0.5726697514526882	1.633507981198362	-0.2434557005143224	0.08110968060643703	-0.7853968214442222	1.671605057228224	1.671605057228216	-0.04360592701871633	0.1745326301300491	0.4363323047761442	0.1619262477166079	0.09489425068781365	0.006175753259540067	0.06005812952573768	-0.2275773797339557	-0.003996992193292661	-0.04165733987058343	-0.0001151617681768007	-0.1304218598685902	-0.1304218598685995	0.003190041559158473	9.23224817455525e-06	-0.00296317929171157	-0.007951353283584759	-0.3742763485466566	0.01234846388361882	0.02834781986040752	-0.4973969072613122	-0.008042182082321155	-0.01114169635591039	0.3831036193570704	-0.03870115149313465	-56.89545952368568	-17.85856122331071	6.761750847113736	9.775323920981972	-789.7551966627051	73.22902999489429	1.282430040260706	0.09931977914020632	2.180427410677184	-6.310632691083371	-0.09844061370369266	-1.701177380367395	-0.02649418043699436	-5.619020147023638	-5.619020147023753	0.1837634038185036	0.01504157555388469	-0.8470575201355273	-0.559426673922825	2.921071288851119e-10	2.514159857788108e-09	2.387308983673093e-08	1.480825895573097e-08	-1.10313374045802e-08	-1.117238466815604e-08	1.827244832716535e-08
1.03	-0.2845267465143574	-0.02648719804282565	0.5733791203483894	1.630917870965069	-0.2435002099306637	0.08060872048490113	-0.7853981632780581	1.670020093163013	1.670020093163024	-0.04356470893696483	0.1745327526904086	0.4362600760320967	0.1618193540650892	0.1075687359331723	0.007166699599226681	0.08180328650617522	-0.2904033896092302	-0.004894362080458139	-0.05851974275310391	-0.0001096050913872377	-0.1865697659898399	-0.1865697659898419	0.005054811846716395	1.280697461917206e-05	-0.0115131548482174	-0.01342158785889912	-0.37387309789263	0.01246587047702677	0.0283531762535553	-0.4970534412383276	-0.008290880227413672	-0.01106811619512738	0.3829652011502868	-0.03873329902466609	-56.95166943719376	-17.82352223742627	6.741401193087302	9.889097026739964	-789.4895376568624	73.20257095072829	1.258666746624247	0.09923871282160367	2.169702315455296	-6.262394081264916	-0.08380271444387842	-1.676534042301495	0.02062060953016578	-5.612497887216195	-5.612497887214881	0.1880231685856541	-0.007349516785083744	-0.8635563379968013	-0.5399452138848291	5.921338429218484e-10	3.154895210303679e-09	3.799397769098344e-08	1.880151659364232e-08	-1.421928958073642e-08	-1.517889147837425e-08	3.535322311829276e-08
